<mxfile host="app.diagrams.net" modified="2024-03-05T02:43:32.408Z" agent="Mozilla/5.0 (Windows NT 10.0; Win64; x64) AppleWebKit/537.36 (KHTML, like Gecko) Chrome/122.0.0.0 Safari/537.36" etag="2_zWE3x3VXdDnRhWQy4Z" version="23.1.5" type="github">
  <diagram name="第 1 页" id="siLPQnkgXP1fzgPhZVyg">
    <mxGraphModel dx="1461" dy="652" grid="1" gridSize="10" guides="1" tooltips="1" connect="1" arrows="1" fold="1" page="1" pageScale="1" pageWidth="827" pageHeight="1169" math="0" shadow="0">
      <root>
        <mxCell id="0" />
        <mxCell id="1" parent="0" />
        <mxCell id="tkunXPXeHfA-rorm2Hu8-6" style="edgeStyle=orthogonalEdgeStyle;rounded=0;orthogonalLoop=1;jettySize=auto;html=1;entryX=0;entryY=0.5;entryDx=0;entryDy=0;" edge="1" parent="1" source="tkunXPXeHfA-rorm2Hu8-1" target="tkunXPXeHfA-rorm2Hu8-5">
          <mxGeometry relative="1" as="geometry" />
        </mxCell>
        <mxCell id="tkunXPXeHfA-rorm2Hu8-1" value="用户" style="shape=umlActor;verticalLabelPosition=bottom;verticalAlign=top;html=1;outlineConnect=0;" vertex="1" parent="1">
          <mxGeometry x="60" y="260" width="30" height="50" as="geometry" />
        </mxCell>
        <mxCell id="tkunXPXeHfA-rorm2Hu8-11" value="" style="edgeStyle=orthogonalEdgeStyle;rounded=0;orthogonalLoop=1;jettySize=auto;html=1;" edge="1" parent="1" source="tkunXPXeHfA-rorm2Hu8-5" target="tkunXPXeHfA-rorm2Hu8-10">
          <mxGeometry relative="1" as="geometry" />
        </mxCell>
        <mxCell id="tkunXPXeHfA-rorm2Hu8-5" value="修改手机号" style="rounded=0;whiteSpace=wrap;html=1;" vertex="1" parent="1">
          <mxGeometry x="170" y="265" width="100" height="40" as="geometry" />
        </mxCell>
        <mxCell id="tkunXPXeHfA-rorm2Hu8-17" style="edgeStyle=orthogonalEdgeStyle;rounded=0;orthogonalLoop=1;jettySize=auto;html=1;" edge="1" parent="1" source="tkunXPXeHfA-rorm2Hu8-10">
          <mxGeometry relative="1" as="geometry">
            <mxPoint x="415" y="390" as="targetPoint" />
          </mxGeometry>
        </mxCell>
        <mxCell id="tkunXPXeHfA-rorm2Hu8-10" value="验证码是否有效" style="rhombus;whiteSpace=wrap;html=1;rounded=0;" vertex="1" parent="1">
          <mxGeometry x="360" y="245" width="110" height="80" as="geometry" />
        </mxCell>
        <mxCell id="tkunXPXeHfA-rorm2Hu8-27" style="edgeStyle=orthogonalEdgeStyle;rounded=0;orthogonalLoop=1;jettySize=auto;html=1;entryX=0.5;entryY=0;entryDx=0;entryDy=0;" edge="1" parent="1" source="tkunXPXeHfA-rorm2Hu8-18" target="tkunXPXeHfA-rorm2Hu8-26">
          <mxGeometry relative="1" as="geometry" />
        </mxCell>
        <mxCell id="tkunXPXeHfA-rorm2Hu8-18" value="开始" style="rounded=1;whiteSpace=wrap;html=1;fillColor=#1BA1E2;" vertex="1" parent="1">
          <mxGeometry x="80" y="450" width="60" height="40" as="geometry" />
        </mxCell>
        <mxCell id="tkunXPXeHfA-rorm2Hu8-48" value="" style="edgeStyle=orthogonalEdgeStyle;rounded=0;orthogonalLoop=1;jettySize=auto;html=1;" edge="1" parent="1" source="tkunXPXeHfA-rorm2Hu8-26" target="tkunXPXeHfA-rorm2Hu8-47">
          <mxGeometry relative="1" as="geometry" />
        </mxCell>
        <mxCell id="tkunXPXeHfA-rorm2Hu8-26" value="修改页面" style="rounded=0;whiteSpace=wrap;html=1;" vertex="1" parent="1">
          <mxGeometry x="70" y="540" width="80" height="40" as="geometry" />
        </mxCell>
        <mxCell id="tkunXPXeHfA-rorm2Hu8-40" style="edgeStyle=orthogonalEdgeStyle;rounded=0;orthogonalLoop=1;jettySize=auto;html=1;" edge="1" parent="1" source="tkunXPXeHfA-rorm2Hu8-31">
          <mxGeometry relative="1" as="geometry">
            <mxPoint x="540" y="790" as="targetPoint" />
          </mxGeometry>
        </mxCell>
        <mxCell id="tkunXPXeHfA-rorm2Hu8-43" value="否" style="edgeLabel;html=1;align=center;verticalAlign=middle;resizable=0;points=[];" vertex="1" connectable="0" parent="tkunXPXeHfA-rorm2Hu8-40">
          <mxGeometry x="-0.358" y="1" relative="1" as="geometry">
            <mxPoint x="45" y="1" as="offset" />
          </mxGeometry>
        </mxCell>
        <mxCell id="tkunXPXeHfA-rorm2Hu8-55" style="edgeStyle=orthogonalEdgeStyle;rounded=0;orthogonalLoop=1;jettySize=auto;html=1;entryX=0.5;entryY=0;entryDx=0;entryDy=0;" edge="1" parent="1" source="tkunXPXeHfA-rorm2Hu8-31" target="tkunXPXeHfA-rorm2Hu8-34">
          <mxGeometry relative="1" as="geometry" />
        </mxCell>
        <mxCell id="tkunXPXeHfA-rorm2Hu8-56" value="是" style="edgeLabel;html=1;align=center;verticalAlign=middle;resizable=0;points=[];" vertex="1" connectable="0" parent="tkunXPXeHfA-rorm2Hu8-55">
          <mxGeometry x="0.4667" y="1" relative="1" as="geometry">
            <mxPoint x="-1" y="-9" as="offset" />
          </mxGeometry>
        </mxCell>
        <mxCell id="tkunXPXeHfA-rorm2Hu8-31" value="手机号校验" style="rhombus;whiteSpace=wrap;html=1;rounded=0;" vertex="1" parent="1">
          <mxGeometry x="70" y="750" width="80" height="80" as="geometry" />
        </mxCell>
        <mxCell id="tkunXPXeHfA-rorm2Hu8-35" style="edgeStyle=orthogonalEdgeStyle;rounded=0;orthogonalLoop=1;jettySize=auto;html=1;entryX=1;entryY=0.5;entryDx=0;entryDy=0;" edge="1" parent="1" source="tkunXPXeHfA-rorm2Hu8-34" target="tkunXPXeHfA-rorm2Hu8-26">
          <mxGeometry relative="1" as="geometry">
            <Array as="points">
              <mxPoint x="540" y="900" />
              <mxPoint x="540" y="560" />
            </Array>
          </mxGeometry>
        </mxCell>
        <mxCell id="tkunXPXeHfA-rorm2Hu8-39" value="否" style="edgeLabel;html=1;align=center;verticalAlign=middle;resizable=0;points=[];" vertex="1" connectable="0" parent="tkunXPXeHfA-rorm2Hu8-35">
          <mxGeometry x="-0.5036" y="-5" relative="1" as="geometry">
            <mxPoint x="-100" y="-5" as="offset" />
          </mxGeometry>
        </mxCell>
        <mxCell id="tkunXPXeHfA-rorm2Hu8-63" style="edgeStyle=orthogonalEdgeStyle;rounded=0;orthogonalLoop=1;jettySize=auto;html=1;entryX=0.5;entryY=0;entryDx=0;entryDy=0;" edge="1" parent="1" source="tkunXPXeHfA-rorm2Hu8-34" target="tkunXPXeHfA-rorm2Hu8-60">
          <mxGeometry relative="1" as="geometry" />
        </mxCell>
        <mxCell id="tkunXPXeHfA-rorm2Hu8-64" value="是" style="edgeLabel;html=1;align=center;verticalAlign=middle;resizable=0;points=[];" vertex="1" connectable="0" parent="tkunXPXeHfA-rorm2Hu8-63">
          <mxGeometry x="-0.16" y="3" relative="1" as="geometry">
            <mxPoint x="-3" as="offset" />
          </mxGeometry>
        </mxCell>
        <mxCell id="tkunXPXeHfA-rorm2Hu8-34" value="验证码校验" style="rhombus;whiteSpace=wrap;html=1;rounded=0;" vertex="1" parent="1">
          <mxGeometry x="70" y="870" width="80" height="80" as="geometry" />
        </mxCell>
        <mxCell id="tkunXPXeHfA-rorm2Hu8-44" value="结束" style="ellipse;whiteSpace=wrap;html=1;rounded=0;fillColor=#F8CECC;" vertex="1" parent="1">
          <mxGeometry x="370" y="990" width="60" height="60" as="geometry" />
        </mxCell>
        <mxCell id="tkunXPXeHfA-rorm2Hu8-50" style="edgeStyle=orthogonalEdgeStyle;rounded=0;orthogonalLoop=1;jettySize=auto;html=1;entryX=0.5;entryY=0;entryDx=0;entryDy=0;" edge="1" parent="1" source="tkunXPXeHfA-rorm2Hu8-47" target="tkunXPXeHfA-rorm2Hu8-31">
          <mxGeometry relative="1" as="geometry" />
        </mxCell>
        <mxCell id="tkunXPXeHfA-rorm2Hu8-54" value="是" style="edgeLabel;html=1;align=center;verticalAlign=middle;resizable=0;points=[];" vertex="1" connectable="0" parent="tkunXPXeHfA-rorm2Hu8-50">
          <mxGeometry x="-0.2167" y="-3" relative="1" as="geometry">
            <mxPoint as="offset" />
          </mxGeometry>
        </mxCell>
        <mxCell id="tkunXPXeHfA-rorm2Hu8-52" style="edgeStyle=orthogonalEdgeStyle;rounded=0;orthogonalLoop=1;jettySize=auto;html=1;" edge="1" parent="1" source="tkunXPXeHfA-rorm2Hu8-47">
          <mxGeometry relative="1" as="geometry">
            <mxPoint x="540" y="670" as="targetPoint" />
          </mxGeometry>
        </mxCell>
        <mxCell id="tkunXPXeHfA-rorm2Hu8-53" value="否" style="edgeLabel;html=1;align=center;verticalAlign=middle;resizable=0;points=[];" vertex="1" connectable="0" parent="tkunXPXeHfA-rorm2Hu8-52">
          <mxGeometry x="-0.2932" relative="1" as="geometry">
            <mxPoint x="32" as="offset" />
          </mxGeometry>
        </mxCell>
        <mxCell id="tkunXPXeHfA-rorm2Hu8-47" value="用户校验" style="rhombus;whiteSpace=wrap;html=1;rounded=0;" vertex="1" parent="1">
          <mxGeometry x="70" y="630" width="80" height="80" as="geometry" />
        </mxCell>
        <mxCell id="tkunXPXeHfA-rorm2Hu8-66" style="edgeStyle=orthogonalEdgeStyle;rounded=0;orthogonalLoop=1;jettySize=auto;html=1;" edge="1" parent="1" source="tkunXPXeHfA-rorm2Hu8-65" target="tkunXPXeHfA-rorm2Hu8-44">
          <mxGeometry relative="1" as="geometry" />
        </mxCell>
        <mxCell id="tkunXPXeHfA-rorm2Hu8-60" value="修改成功" style="rounded=0;whiteSpace=wrap;html=1;" vertex="1" parent="1">
          <mxGeometry x="70" y="1000" width="80" height="40" as="geometry" />
        </mxCell>
        <mxCell id="tkunXPXeHfA-rorm2Hu8-69" value="" style="edgeStyle=orthogonalEdgeStyle;rounded=0;orthogonalLoop=1;jettySize=auto;html=1;" edge="1" parent="1" source="tkunXPXeHfA-rorm2Hu8-60" target="tkunXPXeHfA-rorm2Hu8-65">
          <mxGeometry relative="1" as="geometry">
            <mxPoint x="160" y="1025" as="sourcePoint" />
            <mxPoint x="470" y="1020" as="targetPoint" />
          </mxGeometry>
        </mxCell>
        <mxCell id="tkunXPXeHfA-rorm2Hu8-65" value="删除验证码缓存" style="text;html=1;align=center;verticalAlign=middle;resizable=0;points=[];autosize=1;strokeColor=#d6b656;fillColor=#fff2cc;" vertex="1" parent="1">
          <mxGeometry x="220" y="1005" width="110" height="30" as="geometry" />
        </mxCell>
      </root>
    </mxGraphModel>
  </diagram>
</mxfile>
